<svg xmlns="http://www.w3.org/2000/svg" xmlns:xlink="http://www.w3.org/1999/xlink" xmlns:lucid="lucid" width="655" height="1323"><g transform="translate(0 0)" lucid:page-tab-id="0_0"><path d="M434.05 59c0 22.1-17.9 40-40 40s-40-17.9-40-40 17.9-40 40-40 40 17.9 40 40z" stroke="#000" stroke-width="2" fill="#fff"/><use xlink:href="#a" transform="matrix(1,0,0,1,359.0503950934508,23.999415126198073) translate(14.28895061728395 27.34722222222222)"/><use xlink:href="#b" transform="matrix(1,0,0,1,359.0503950934508,23.999415126198073) translate(14.777777777777775 48.68055555555556)"/><path d="M275.95 249c0 27.6-22.4 50-50 50s-50-22.4-50-50 22.4-50 50-50 50 22.4 50 50z" stroke="#000" stroke-width="2" fill="#fff"/><use xlink:href="#c" transform="matrix(1,0,0,1,180.94960490653716,203.99941512619807) translate(12.925925925925924 47.97222222222222)"/><path d="M444.05 249c0 27.6-22.4 50-50 50s-50-22.4-50-50 22.4-50 50-50 50 22.4 50 50z" stroke="#000" stroke-width="2" fill="#fff"/><use xlink:href="#d" transform="matrix(1,0,0,1,349.0503950934508,203.99941512619807) translate(25.271604938271604 37.888888888888886)"/><use xlink:href="#e" transform="matrix(1,0,0,1,349.0503950934508,203.99941512619807) translate(-0.3580246913580254 59.22222222222222)"/><path d="M612.15 249c0 27.6-22.38 50-50 50-27.6 0-50-22.4-50-50s22.4-50 50-50c27.62 0 50 22.4 50 50z" stroke="#000" stroke-width="2" fill="#fff"/><use xlink:href="#f" transform="matrix(1,0,0,1,517.1511852803644,203.99941512619807) translate(4.53086419753086 47.97222222222222)"/><use xlink:href="#g" transform="matrix(1,0,0,1,517.1511852803644,203.99941512619807) translate(42.01234567901235 47.97222222222222)"/><path d="M394.05 101v48h-168.1v30.5" stroke="#000" stroke-width="2" fill="none"/><path d="M394.04 100l1-.04v1.07h-2v-1.1z"/><path d="M225.95 194.76l-4.64-14.26h9.28z" stroke="#000" stroke-width="2"/><path d="M394.05 101v78.5M394.05 100" stroke="#000" stroke-width="2" fill="none"/><path d="M394.05 194.76l-4.63-14.26h9.27z" stroke="#000" stroke-width="2"/><path d="M394.05 101v48h168.1v30.5" stroke="#000" stroke-width="2" fill="none"/><path d="M394.04 100l1-.04v1.07h-2v-1.1z"/><path d="M562.15 194.76l-4.63-14.26h9.27z" stroke="#000" stroke-width="2"/><path d="M67.85 139h80v160h-80z" fill="none"/><path d="M147.85 299c-5.52 0-10-4.48-10-10v-60c0-5.52-4.48-10-10-10 5.52 0 10-4.48 10-10v-60c0-5.52 4.48-10 10-10" stroke="#000" stroke-width="2" fill="none"/><use xlink:href="#h" transform="matrix(1,0,0,1,72.84881471963558,143.99941512619804) translate(-61.580246913580254 78.55555555555556)"/><path d="M275.95 429c0 27.6-22.4 50-50 50s-50-22.4-50-50 22.4-50 50-50 50 22.4 50 50z" stroke="#000" stroke-width="2" fill="#fff"/><use xlink:href="#i" transform="matrix(1,0,0,1,180.94960490653716,383.9994151261633) translate(25.2716049382716 36.72222222222222)"/><use xlink:href="#j" transform="matrix(1,0,0,1,180.94960490653716,383.9994151261633) translate(2.061728395061728 58.05555555555556)"/><path d="M444.05 429c0 27.6-22.4 50-50 50s-50-22.4-50-50 22.4-50 50-50 50 22.4 50 50z" stroke="#000" stroke-width="2" fill="#fff"/><use xlink:href="#k" transform="matrix(1,0,0,1,349.05039509343874,383.9994151261865) translate(8.037037037037031 47.97222222222222)"/><use xlink:href="#l" transform="matrix(1,0,0,1,349.05039509343874,383.9994151261865) translate(52.4320987654321 47.97222222222222)"/><path d="M612.15 430.6c0 27.6-22.38 50-50 50-27.6 0-50-22.4-50-50s22.4-50 50-50c27.62 0 50 22.4 50 50z" stroke="#000" stroke-width="2" fill="#fff"/><use xlink:href="#k" transform="matrix(1,0,0,1,517.1511852803644,385.599415126198) translate(8.037037037037031 47.97222222222222)"/><use xlink:href="#l" transform="matrix(1,0,0,1,517.1511852803644,385.599415126198) translate(52.4320987654321 47.97222222222222)"/><path d="M67.85 320.6h80v160h-80z" fill="none"/><path d="M147.85 480.6c-5.52 0-10-4.48-10-10v-60c0-5.52-4.48-10-10-10 5.52 0 10-4.48 10-10v-60c0-5.52 4.48-10 10-10" stroke="#000" stroke-width="2" fill="none"/><use xlink:href="#m" transform="matrix(1,0,0,1,72.84881471963558,325.59941512617473) translate(-45.777777777777786 78.55555555555556)"/><path d="M67.85 502.2h80v160h-80z" fill="none"/><path d="M147.85 662.2c-5.52 0-10-4.48-10-10v-60c0-5.52-4.48-10-10-10 5.52 0 10-4.48 10-10v-60c0-5.52 4.48-10 10-10" stroke="#000" stroke-width="2" fill="none"/><use xlink:href="#n" transform="matrix(1,0,0,1,72.84881471963558,507.1994151261515) translate(8.395061728395056 67.88888888888889)"/><use xlink:href="#o" transform="matrix(1,0,0,1,72.84881471963558,507.1994151261515) translate(-45.777777777777786 89.22222222222223)"/><path d="M276.95 612.2c0 27.6-22.6 50-50.5 50s-50.5-22.4-50.5-50 22.6-50 50.5-50 50.5 22.4 50.5 50z" stroke="#000" stroke-width="2" fill="#fff"/><use xlink:href="#p" transform="matrix(1,0,0,1,180.94960490653722,567.1994151261747) translate(19.851851851851848 47.97222222222222)"/><path d="M444.05 612.2c0 27.6-22.4 50-50 50s-50-22.4-50-50 22.4-50 50-50 50 22.4 50 50z" stroke="#000" stroke-width="2" fill="#fff"/><use xlink:href="#q" transform="matrix(1,0,0,1,349.0503950934508,567.1994151261747) translate(10.925925925925924 47.97222222222222)"/><path d="M611.15 612.2c0 27.6-22.4 50-50 50s-50-22.4-50-50 22.4-50 50-50 50 22.4 50 50z" stroke="#000" stroke-width="2" fill="#fff"/><use xlink:href="#r" transform="matrix(1,0,0,1,516.1496049065371,567.1994151261747) translate(17.913580246913575 47.97222222222222)"/><path d="M225.95 301v58.5" stroke="#000" stroke-width="2" fill="none"/><path d="M225.94 300l1-.04v1.07h-2v-1.08z"/><path d="M225.95 374.76l-4.64-14.26h9.28z" stroke="#000" stroke-width="2"/><path d="M225.95 301v38h167.98v20.5" stroke="#000" stroke-width="2" fill="none"/><path d="M225.94 300l1-.04v1.07h-2v-1.08z"/><path d="M393.93 374.77l-4.64-14.27h9.26z" stroke="#000" stroke-width="2"/><path d="M225.95 301v38.8h336.2v21.3" stroke="#000" stroke-width="2" fill="none"/><path d="M225.94 300l1-.04v1.07h-2v-1.08z"/><path d="M562.15 376.36l-4.63-14.26h9.27z" stroke="#000" stroke-width="2"/><path d="M394.05 481v39.6h-167.6v22.1" stroke="#000" stroke-width="2" fill="none"/><path d="M394.04 480l1-.04v1.07h-2v-1.08z"/><path d="M226.45 557.96l-4.63-14.26h9.27z" stroke="#000" stroke-width="2"/><path d="M394.05 481v61.7" stroke="#000" stroke-width="2" fill="none"/><path d="M394.04 480l1-.04v1.07h-2v-1.08z"/><path d="M394.05 557.96l-4.63-14.26h9.27z" stroke="#000" stroke-width="2"/><path d="M394.05 481v39.6h167.1v22.1" stroke="#000" stroke-width="2" fill="none"/><path d="M394.04 480l1-.04v1.07h-2v-1.08z"/><path d="M561.15 557.96l-4.64-14.26h9.28z" stroke="#000" stroke-width="2"/><path d="M276.95 799c0 27.6-22.6 50-50.5 50s-50.5-22.4-50.5-50 22.6-50 50.5-50 50.5 22.4 50.5 50z" stroke="#000" stroke-width="2" fill="#fff"/><use xlink:href="#s" transform="matrix(1,0,0,1,180.94960490653722,753.9994151261981) translate(18.839506172839503 47.97222222222222)"/><use xlink:href="#t" transform="matrix(1,0,0,1,180.94960490653722,753.9994151261981) translate(63.28395061728395 47.97222222222222)"/><path d="M444.05 799c0 27.6-22.4 50-50 50s-50-22.4-50-50 22.4-50 50-50 50 22.4 50 50z" stroke="#000" stroke-width="2" fill="#fff"/><use xlink:href="#s" transform="matrix(1,0,0,1,349.0503950934508,753.9994151261983) translate(17.839506172839503 47.97222222222222)"/><use xlink:href="#u" transform="matrix(1,0,0,1,349.0503950934508,753.9994151261983) translate(62.28395061728395 47.97222222222222)"/><path d="M611.15 799c0 27.6-22.4 50-50 50s-50-22.4-50-50 22.4-50 50-50 50 22.4 50 50z" stroke="#000" stroke-width="2" fill="#fff"/><use xlink:href="#s" transform="matrix(1,0,0,1,516.1496049065371,753.9994151261983) translate(17.839506172839503 47.97222222222222)"/><use xlink:href="#v" transform="matrix(1,0,0,1,516.1496049065371,753.9994151261983) translate(62.28395061728395 47.97222222222222)"/><path d="M561.15 664.2v41.4h-334.7v23.9" stroke="#000" stroke-width="2" fill="none"/><path d="M561.14 663.2l1-.04v1.07h-2v-1.08z"/><path d="M226.45 744.76l-4.63-14.26h9.27z" stroke="#000" stroke-width="2"/><path d="M561.15 664.2v41.4h-167.1v23.9" stroke="#000" stroke-width="2" fill="none"/><path d="M561.14 663.2l1-.04v1.07h-2v-1.08z"/><path d="M394.05 744.76l-4.63-14.26h9.27z" stroke="#000" stroke-width="2"/><path d="M561.15 664.2v65.3M561.15 663.2" stroke="#000" stroke-width="2" fill="none"/><path d="M561.15 744.76l-4.64-14.26h9.28z" stroke="#000" stroke-width="2"/><path d="M68.85 683.8h80v160h-80z" fill="none"/><path d="M148.85 843.8c-5.52 0-10-4.48-10-10v-60c0-5.52-4.48-10-10-10 5.52 0 10-4.48 10-10v-60c0-5.52 4.48-10 10-10" stroke="#000" stroke-width="2" fill="none"/><use xlink:href="#w" transform="matrix(1,0,0,1,73.85039509345086,688.7994151261281) translate(-10.370370370370381 57.22222222222222)"/><use xlink:href="#x" transform="matrix(1,0,0,1,73.85039509345086,688.7994151261281) translate(25.185185185185183 78.55555555555557)"/><use xlink:href="#y" transform="matrix(1,0,0,1,73.85039509345086,688.7994151261281) translate(-30.074074074074076 99.8888888888889)"/><path d="M394.05 899l80 60-80 60-80-60z" stroke="#000" stroke-width="2" fill="#fff"/><use xlink:href="#z" transform="matrix(1,0,0,1,319.0503950934508,903.9994151261981) translate(34.53 48.775)"/><use xlink:href="#A" transform="matrix(1,0,0,1,319.0503950934508,903.9994151261981) translate(53.53 48.775)"/><use xlink:href="#B" transform="matrix(1,0,0,1,319.0503950934508,903.9994151261981) translate(44.03 70.375)"/><path d="M394.05 851v28.25" stroke="#000" stroke-width="2" fill="none"/><path d="M394.04 850l1-.04v1.07h-2v-1.08z"/><path d="M394.05 894.5l-4.63-14.25h9.27z" stroke="#000" stroke-width="2"/><path d="M263.14 960h-36.2v99.5h-2V958h38.2zm48.24 0h-18.9v-2h18.9z"/><path d="M312.38 959l1.34 1h-2.36v-2h2.36zM225.95 1074.76l-4.64-14.26h9.28z"/><path d="M225.95 1078l-6-18.5h12zm-3.26-16.5l3.25 10.03 3.26-10.03z"/><use xlink:href="#C" transform="matrix(1,0,0,1,263.1418905486826,948.1994151261981) translate(0 14.4)"/><path d="M535.76 999.54h-2V960h-26.62v-2h28.62zM476.72 960v-2h7.47v2z"/><path d="M476.74 960h-2.36l1.34-1-1.34-1h2.36zM534.76 1014.8l-4.64-14.26h9.27z"/><path d="M534.76 1018.04l-6-18.5h12zm-3.26-16.5l3.26 10.03 3.26-10.03z"/><use xlink:href="#D" transform="matrix(1,0,0,1,484.1889309293905,948.1994151261981) translate(0 14.4)"/><path d="M285.95 1187c0 6.63-26.86 12-60 12s-60-5.37-60-12v-96c0-6.63 26.86-12 60-12s60 5.37 60 12z" stroke="#000" stroke-width="2" fill="#fff"/><path d="M285.95 1091c0 6.63-26.86 12-60 12s-60-5.37-60-12" stroke="#000" stroke-width="2" fill="none"/><g><use xlink:href="#E" transform="matrix(1,0,0,1,170.94960490653716,1107.999415126198) translate(0.04999999999999716 25.15)"/><use xlink:href="#A" transform="matrix(1,0,0,1,170.94960490653716,1107.999415126198) translate(48 25.15)"/><use xlink:href="#F" transform="matrix(1,0,0,1,170.94960490653716,1107.999415126198) translate(24.55 46.75)"/><use xlink:href="#G" transform="matrix(1,0,0,1,170.94960490653716,1107.999415126198) translate(70.45 46.75)"/><use xlink:href="#H" transform="matrix(1,0,0,1,170.94960490653716,1107.999415126198) translate(16.525 68.35000000000001)"/></g><path d="M594.05 1247c0 6.63-26.86 12-60 12s-60-5.37-60-12v-96c0-6.63 26.86-12 60-12s60 5.37 60 12z" stroke="#000" stroke-width="2" fill="#fff"/><path d="M594.05 1151c0 6.63-26.86 12-60 12s-60-5.37-60-12" stroke="#000" stroke-width="2" fill="none"/><g><use xlink:href="#I" transform="matrix(1,0,0,1,479.0503950934508,1167.999415126198) translate(9.074999999999996 25.15)"/><use xlink:href="#J" transform="matrix(1,0,0,1,479.0503950934508,1167.999415126198) translate(67.975 25.15)"/><use xlink:href="#K" transform="matrix(1,0,0,1,479.0503950934508,1167.999415126198) translate(0.04999999999999716 46.75)"/><use xlink:href="#L" transform="matrix(1,0,0,1,479.0503950934508,1167.999415126198) translate(67 46.75)"/><use xlink:href="#M" transform="matrix(1,0,0,1,479.0503950934508,1167.999415126198) translate(7.049999999999997 68.35000000000001)"/><use xlink:href="#H" transform="matrix(1,0,0,1,479.0503950934508,1167.999415126198) translate(25.999999999999996 68.35000000000001)"/></g><path d="M534.05 1261v39h-207.1v-161h-21.5" stroke="#000" stroke-width="2" fill="none"/><path d="M534.05 1260l1-.03v1.06h-2v-1.07z"/><path d="M290.2 1139l14.25-4.64v9.27z" stroke="#000" stroke-width="2"/><path d="M574.05 1059c0 22.1-17.9 40-40 40s-40-17.9-40-40 17.9-40 40-40 40 17.9 40 40z" stroke="#000" stroke-width="2" fill="#fff"/><g><use xlink:href="#N" transform="matrix(1,0,0,1,499.0503950934508,1023.9994151261981) translate(4.029999999999999 27.525)"/><use xlink:href="#O" transform="matrix(1,0,0,1,499.0503950934508,1023.9994151261981) translate(14.005 49.125)"/></g><path d="M534.05 1101v18.5" stroke="#000" stroke-width="2" fill="none"/><path d="M534.04 1100l1-.04v1.07h-2v-1.1z"/><path d="M534.05 1134.76l-4.63-14.26h9.27z" stroke="#000" stroke-width="2"/><defs><path d="M30 0v-248h187v28H63v79h144v27H63v87h162V0H30" id="P"/><path d="M117-194c89-4 53 116 60 194h-32v-121c0-31-8-49-39-48C34-167 62-67 57 0H25l-1-190h30c1 10-1 24 2 32 11-22 29-35 61-36" id="Q"/><path d="M59-47c-2 24 18 29 38 22v24C64 9 27 4 27-40v-127H5v-23h24l9-43h21v43h35v23H59v120" id="R"/><path d="M114-163C36-179 61-72 57 0H25l-1-190h30c1 12-1 29 2 39 6-27 23-49 58-41v29" id="S"/><path d="M179-190L93 31C79 59 56 82 12 73V49c39 6 53-20 64-50L1-190h34L92-34l54-156h33" id="T"/><g id="a"><use transform="matrix(0.04938271604938272,0,0,0.04938271604938272,0,0)" xlink:href="#P"/><use transform="matrix(0.04938271604938272,0,0,0.04938271604938272,11.851851851851853,0)" xlink:href="#Q"/><use transform="matrix(0.04938271604938272,0,0,0.04938271604938272,21.7283950617284,0)" xlink:href="#R"/><use transform="matrix(0.04938271604938272,0,0,0.04938271604938272,26.666666666666668,0)" xlink:href="#S"/><use transform="matrix(0.04938271604938272,0,0,0.04938271604938272,32.543209876543216,0)" xlink:href="#T"/></g><path d="M30-248c87 1 191-15 191 75 0 78-77 80-158 76V0H30v-248zm33 125c57 0 124 11 124-50 0-59-68-47-124-48v98" id="U"/><path d="M100-194c62-1 85 37 85 99 1 63-27 99-86 99S16-35 15-95c0-66 28-99 85-99zM99-20c44 1 53-31 53-75 0-43-8-75-51-75s-53 32-53 75 10 74 51 75" id="V"/><path d="M24-231v-30h32v30H24zM24 0v-190h32V0H24" id="W"/><g id="b"><use transform="matrix(0.04938271604938272,0,0,0.04938271604938272,0,0)" xlink:href="#U"/><use transform="matrix(0.04938271604938272,0,0,0.04938271604938272,11.851851851851853,0)" xlink:href="#V"/><use transform="matrix(0.04938271604938272,0,0,0.04938271604938272,21.7283950617284,0)" xlink:href="#W"/><use transform="matrix(0.04938271604938272,0,0,0.04938271604938272,25.629629629629633,0)" xlink:href="#Q"/><use transform="matrix(0.04938271604938272,0,0,0.04938271604938272,35.50617283950618,0)" xlink:href="#R"/></g><path d="M115-194c55 1 70 41 70 98S169 2 115 4C84 4 66-9 55-30l1 105H24l-1-265h31l2 30c10-21 28-34 59-34zm-8 174c40 0 45-34 45-75s-6-73-45-74c-42 0-51 32-51 76 0 43 10 73 51 73" id="X"/><path d="M85-194c31 0 48 13 60 33l-1-100h32l1 261h-30c-2-10 0-23-3-31C134-8 116 4 85 4 32 4 16-35 15-94c0-66 23-100 70-100zm9 24c-40 0-46 34-46 75 0 40 6 74 45 74 42 0 51-32 51-76 0-42-9-74-50-73" id="Y"/><path d="M84 4C-5 8 30-112 23-190h32v120c0 31 7 50 39 49 72-2 45-101 50-169h31l1 190h-30c-1-10 1-25-2-33-11 22-28 36-60 37" id="Z"/><path d="M96-169c-40 0-48 33-48 73s9 75 48 75c24 0 41-14 43-38l32 2c-6 37-31 61-74 61-59 0-76-41-82-99-10-93 101-131 147-64 4 7 5 14 7 22l-32 3c-4-21-16-35-41-35" id="aa"/><path d="M100-194c63 0 86 42 84 106H49c0 40 14 67 53 68 26 1 43-12 49-29l28 8c-11 28-37 45-77 45C44 4 14-33 15-96c1-61 26-98 85-98zm52 81c6-60-76-77-97-28-3 7-6 17-6 28h103" id="ab"/><g id="c"><use transform="matrix(0.04938271604938272,0,0,0.04938271604938272,0,0)" xlink:href="#X"/><use transform="matrix(0.04938271604938272,0,0,0.04938271604938272,9.876543209876544,0)" xlink:href="#S"/><use transform="matrix(0.04938271604938272,0,0,0.04938271604938272,15.753086419753087,0)" xlink:href="#V"/><use transform="matrix(0.04938271604938272,0,0,0.04938271604938272,25.629629629629633,0)" xlink:href="#Y"/><use transform="matrix(0.04938271604938272,0,0,0.04938271604938272,35.50617283950618,0)" xlink:href="#Z"/><use transform="matrix(0.04938271604938272,0,0,0.04938271604938272,45.38271604938272,0)" xlink:href="#aa"/><use transform="matrix(0.04938271604938272,0,0,0.04938271604938272,54.27160493827161,0)" xlink:href="#ab"/></g><path d="M210-169c-67 3-38 105-44 169h-31v-121c0-29-5-50-35-48C34-165 62-65 56 0H25l-1-190h30c1 10-1 24 2 32 10-44 99-50 107 0 11-21 27-35 58-36 85-2 47 119 55 194h-31v-121c0-29-5-49-35-48" id="ac"/><path d="M141-36C126-15 110 5 73 4 37 3 15-17 15-53c-1-64 63-63 125-63 3-35-9-54-41-54-24 1-41 7-42 31l-33-3c5-37 33-52 76-52 45 0 72 20 72 64v82c-1 20 7 32 28 27v20c-31 9-61-2-59-35zM48-53c0 20 12 33 32 33 41-3 63-29 60-74-43 2-92-5-92 41" id="ad"/><g id="d"><use transform="matrix(0.04938271604938272,0,0,0.04938271604938272,0,0)" xlink:href="#ac"/><use transform="matrix(0.04938271604938272,0,0,0.04938271604938272,14.765432098765434,0)" xlink:href="#ab"/><use transform="matrix(0.04938271604938272,0,0,0.04938271604938272,24.641975308641978,0)" xlink:href="#ad"/><use transform="matrix(0.04938271604938272,0,0,0.04938271604938272,34.51851851851852,0)" xlink:href="#R"/></g><path d="M24 0v-261h32V0H24" id="ae"/><path d="M108 0H70L1-190h34L89-25l56-165h34" id="af"/><path d="M135-143c-3-34-86-38-87 0 15 53 115 12 119 90S17 21 10-45l28-5c4 36 97 45 98 0-10-56-113-15-118-90-4-57 82-63 122-42 12 7 21 19 24 35" id="ag"/><g id="e"><use transform="matrix(0.04938271604938272,0,0,0.04938271604938272,0,0)" xlink:href="#ad"/><use transform="matrix(0.04938271604938272,0,0,0.04938271604938272,9.876543209876544,0)" xlink:href="#ae"/><use transform="matrix(0.04938271604938272,0,0,0.04938271604938272,13.777777777777779,0)" xlink:href="#R"/><use transform="matrix(0.04938271604938272,0,0,0.04938271604938272,18.71604938271605,0)" xlink:href="#ab"/><use transform="matrix(0.04938271604938272,0,0,0.04938271604938272,28.592592592592595,0)" xlink:href="#S"/><use transform="matrix(0.04938271604938272,0,0,0.04938271604938272,34.46913580246914,0)" xlink:href="#Q"/><use transform="matrix(0.04938271604938272,0,0,0.04938271604938272,44.345679012345684,0)" xlink:href="#ad"/><use transform="matrix(0.04938271604938272,0,0,0.04938271604938272,54.22222222222223,0)" xlink:href="#R"/><use transform="matrix(0.04938271604938272,0,0,0.04938271604938272,59.1604938271605,0)" xlink:href="#W"/><use transform="matrix(0.04938271604938272,0,0,0.04938271604938272,63.061728395061735,0)" xlink:href="#af"/><use transform="matrix(0.04938271604938272,0,0,0.04938271604938272,71.95061728395062,0)" xlink:href="#ab"/><use transform="matrix(0.04938271604938272,0,0,0.04938271604938272,81.82716049382717,0)" xlink:href="#ag"/></g><path d="M115-194c53 0 69 39 70 98 0 66-23 100-70 100C84 3 66-7 56-30L54 0H23l1-261h32v101c10-23 28-34 59-34zm-8 174c40 0 45-34 45-75 0-40-5-75-45-74-42 0-51 32-51 76 0 43 10 73 51 73" id="ah"/><path d="M143 0L79-87 56-68V0H24v-261h32v163l83-92h37l-77 82L181 0h-38" id="ai"/><g id="f"><use transform="matrix(0.04938271604938272,0,0,0.04938271604938272,0,0)" xlink:href="#ah"/><use transform="matrix(0.04938271604938272,0,0,0.04938271604938272,9.876543209876544,0)" xlink:href="#Z"/><use transform="matrix(0.04938271604938272,0,0,0.04938271604938272,19.75308641975309,0)" xlink:href="#ae"/><use transform="matrix(0.04938271604938272,0,0,0.04938271604938272,23.654320987654323,0)" xlink:href="#ai"/></g><path d="M101-234c-31-9-42 10-38 44h38v23H63V0H32v-167H5v-23h27c-7-52 17-82 69-68v24" id="aj"/><g id="g"><use transform="matrix(0.04938271604938272,0,0,0.04938271604938272,0,0)" xlink:href="#aj"/><use transform="matrix(0.04938271604938272,0,0,0.04938271604938272,4.938271604938272,0)" xlink:href="#V"/><use transform="matrix(0.04938271604938272,0,0,0.04938271604938272,14.814814814814817,0)" xlink:href="#V"/><use transform="matrix(0.04938271604938272,0,0,0.04938271604938272,24.69135802469136,0)" xlink:href="#Y"/><use transform="matrix(0.04938271604938272,0,0,0.04938271604938272,34.567901234567906,0)" xlink:href="#ag"/></g><path d="M30-248c118-7 216 8 213 122C240-48 200 0 122 0H30v-248zM63-27c89 8 146-16 146-99s-60-101-146-95v194" id="ak"/><g id="h"><use transform="matrix(0.04938271604938272,0,0,0.04938271604938272,0,0)" xlink:href="#ak"/><use transform="matrix(0.04938271604938272,0,0,0.04938271604938272,12.790123456790125,0)" xlink:href="#ab"/><use transform="matrix(0.04938271604938272,0,0,0.04938271604938272,22.66666666666667,0)" xlink:href="#X"/><use transform="matrix(0.04938271604938272,0,0,0.04938271604938272,32.543209876543216,0)" xlink:href="#ad"/><use transform="matrix(0.04938271604938272,0,0,0.04938271604938272,42.41975308641976,0)" xlink:href="#S"/><use transform="matrix(0.04938271604938272,0,0,0.04938271604938272,48.296296296296305,0)" xlink:href="#R"/><use transform="matrix(0.04938271604938272,0,0,0.04938271604938272,53.23456790123457,0)" xlink:href="#ac"/><use transform="matrix(0.04938271604938272,0,0,0.04938271604938272,68.00000000000001,0)" xlink:href="#ab"/><use transform="matrix(0.04938271604938272,0,0,0.04938271604938272,77.87654320987656,0)" xlink:href="#Q"/><use transform="matrix(0.04938271604938272,0,0,0.04938271604938272,87.7530864197531,0)" xlink:href="#R"/><use transform="matrix(0.04938271604938272,0,0,0.04938271604938272,92.69135802469137,0)" xlink:href="#ag"/></g><path fill="#171f29" d="M101-234c-31-9-42 10-38 44h38v23H63V0H32v-167H5v-23h27c-7-52 17-82 69-68v24" id="al"/><path fill="#171f29" d="M114-163C36-179 61-72 57 0H25l-1-190h30c1 12-1 29 2 39 6-27 23-49 58-41v29" id="am"/><path fill="#171f29" d="M100-194c63 0 86 42 84 106H49c0 40 14 67 53 68 26 1 43-12 49-29l28 8c-11 28-37 45-77 45C44 4 14-33 15-96c1-61 26-98 85-98zm52 81c6-60-76-77-97-28-3 7-6 17-6 28h103" id="an"/><path fill="#171f29" d="M135-143c-3-34-86-38-87 0 15 53 115 12 119 90S17 21 10-45l28-5c4 36 97 45 98 0-10-56-113-15-118-90-4-57 82-63 122-42 12 7 21 19 24 35" id="ao"/><path fill="#171f29" d="M106-169C34-169 62-67 57 0H25v-261h32l-1 103c12-21 28-36 61-36 89 0 53 116 60 194h-32v-121c2-32-8-49-39-48" id="ap"/><g id="i"><use transform="matrix(0.04938271604938272,0,0,0.04938271604938272,0,0)" xlink:href="#al"/><use transform="matrix(0.04938271604938272,0,0,0.04938271604938272,4.938271604938272,0)" xlink:href="#am"/><use transform="matrix(0.04938271604938272,0,0,0.04938271604938272,10.814814814814817,0)" xlink:href="#an"/><use transform="matrix(0.04938271604938272,0,0,0.04938271604938272,20.69135802469136,0)" xlink:href="#ao"/><use transform="matrix(0.04938271604938272,0,0,0.04938271604938272,29.58024691358025,0)" xlink:href="#ap"/></g><path fill="#171f29" d="M108 0H70L1-190h34L89-25l56-165h34" id="aq"/><path fill="#171f29" d="M177-190C167-65 218 103 67 71c-23-6-38-20-44-43l32-5c15 47 100 32 89-28v-30C133-14 115 1 83 1 29 1 15-40 15-95c0-56 16-97 71-98 29-1 48 16 59 35 1-10 0-23 2-32h30zM94-22c36 0 50-32 50-73 0-42-14-75-50-75-39 0-46 34-46 75s6 73 46 73" id="ar"/><path fill="#171f29" d="M59-47c-2 24 18 29 38 22v24C64 9 27 4 27-40v-127H5v-23h24l9-43h21v43h35v23H59v120" id="as"/><path fill="#171f29" d="M141-36C126-15 110 5 73 4 37 3 15-17 15-53c-1-64 63-63 125-63 3-35-9-54-41-54-24 1-41 7-42 31l-33-3c5-37 33-52 76-52 45 0 72 20 72 64v82c-1 20 7 32 28 27v20c-31 9-61-2-59-35zM48-53c0 20 12 33 32 33 41-3 63-29 60-74-43 2-92-5-92 41" id="at"/><path fill="#171f29" d="M115-194c53 0 69 39 70 98 0 66-23 100-70 100C84 3 66-7 56-30L54 0H23l1-261h32v101c10-23 28-34 59-34zm-8 174c40 0 45-34 45-75 0-40-5-75-45-74-42 0-51 32-51 76 0 43 10 73 51 73" id="au"/><path fill="#171f29" d="M24 0v-261h32V0H24" id="av"/><g id="j"><use transform="matrix(0.04938271604938272,0,0,0.04938271604938272,0,0)" xlink:href="#aq"/><use transform="matrix(0.04938271604938272,0,0,0.04938271604938272,8.88888888888889,0)" xlink:href="#an"/><use transform="matrix(0.04938271604938272,0,0,0.04938271604938272,18.765432098765434,0)" xlink:href="#ar"/><use transform="matrix(0.04938271604938272,0,0,0.04938271604938272,28.641975308641978,0)" xlink:href="#an"/><use transform="matrix(0.04938271604938272,0,0,0.04938271604938272,38.51851851851852,0)" xlink:href="#as"/><use transform="matrix(0.04938271604938272,0,0,0.04938271604938272,43.45679012345679,0)" xlink:href="#at"/><use transform="matrix(0.04938271604938272,0,0,0.04938271604938272,53.333333333333336,0)" xlink:href="#au"/><use transform="matrix(0.04938271604938272,0,0,0.04938271604938272,63.20987654320988,0)" xlink:href="#av"/><use transform="matrix(0.04938271604938272,0,0,0.04938271604938272,67.11111111111111,0)" xlink:href="#an"/><use transform="matrix(0.04938271604938272,0,0,0.04938271604938272,76.98765432098766,0)" xlink:href="#ao"/></g><g id="k"><use transform="matrix(0.04938271604938272,0,0,0.04938271604938272,0,0)" xlink:href="#al"/><use transform="matrix(0.04938271604938272,0,0,0.04938271604938272,4.938271604938272,0)" xlink:href="#am"/><use transform="matrix(0.04938271604938272,0,0,0.04938271604938272,10.814814814814817,0)" xlink:href="#an"/><use transform="matrix(0.04938271604938272,0,0,0.04938271604938272,20.69135802469136,0)" xlink:href="#ao"/><use transform="matrix(0.04938271604938272,0,0,0.04938271604938272,29.58024691358025,0)" xlink:href="#ap"/></g><path fill="#171f29" d="M84 4C-5 8 30-112 23-190h32v120c0 31 7 50 39 49 72-2 45-101 50-169h31l1 190h-30c-1-10 1-25-2-33-11 22-28 36-60 37" id="aw"/><path fill="#171f29" d="M24-231v-30h32v30H24zM24 0v-190h32V0H24" id="ax"/><g id="l"><use transform="matrix(0.04938271604938272,0,0,0.04938271604938272,0,0)" xlink:href="#al"/><use transform="matrix(0.04938271604938272,0,0,0.04938271604938272,4.938271604938272,0)" xlink:href="#am"/><use transform="matrix(0.04938271604938272,0,0,0.04938271604938272,10.814814814814817,0)" xlink:href="#aw"/><use transform="matrix(0.04938271604938272,0,0,0.04938271604938272,20.69135802469136,0)" xlink:href="#ax"/><use transform="matrix(0.04938271604938272,0,0,0.04938271604938272,24.592592592592595,0)" xlink:href="#as"/></g><path d="M212-179c-10-28-35-45-73-45-59 0-87 40-87 99 0 60 29 101 89 101 43 0 62-24 78-52l27 14C228-24 195 4 139 4 59 4 22-46 18-125c-6-104 99-153 187-111 19 9 31 26 39 46" id="ay"/><path d="M177-190C167-65 218 103 67 71c-23-6-38-20-44-43l32-5c15 47 100 32 89-28v-30C133-14 115 1 83 1 29 1 15-40 15-95c0-56 16-97 71-98 29-1 48 16 59 35 1-10 0-23 2-32h30zM94-22c36 0 50-32 50-73 0-42-14-75-50-75-39 0-46 34-46 75s6 73 46 73" id="az"/><g id="m"><use transform="matrix(0.04938271604938272,0,0,0.04938271604938272,0,0)" xlink:href="#ay"/><use transform="matrix(0.04938271604938272,0,0,0.04938271604938272,12.790123456790125,0)" xlink:href="#ad"/><use transform="matrix(0.04938271604938272,0,0,0.04938271604938272,22.66666666666667,0)" xlink:href="#R"/><use transform="matrix(0.04938271604938272,0,0,0.04938271604938272,27.604938271604947,0)" xlink:href="#ab"/><use transform="matrix(0.04938271604938272,0,0,0.04938271604938272,37.48148148148149,0)" xlink:href="#az"/><use transform="matrix(0.04938271604938272,0,0,0.04938271604938272,47.35802469135803,0)" xlink:href="#V"/><use transform="matrix(0.04938271604938272,0,0,0.04938271604938272,57.23456790123457,0)" xlink:href="#S"/><use transform="matrix(0.04938271604938272,0,0,0.04938271604938272,63.111111111111114,0)" xlink:href="#W"/><use transform="matrix(0.04938271604938272,0,0,0.04938271604938272,67.01234567901236,0)" xlink:href="#ab"/><use transform="matrix(0.04938271604938272,0,0,0.04938271604938272,76.8888888888889,0)" xlink:href="#ag"/></g><path d="M185-189c-5-48-123-54-124 2 14 75 158 14 163 119 3 78-121 87-175 55-17-10-28-26-33-46l33-7c5 56 141 63 141-1 0-78-155-14-162-118-5-82 145-84 179-34 5 7 8 16 11 25" id="aA"/><g id="n"><use transform="matrix(0.04938271604938272,0,0,0.04938271604938272,0,0)" xlink:href="#aA"/><use transform="matrix(0.04938271604938272,0,0,0.04938271604938272,11.851851851851853,0)" xlink:href="#Z"/><use transform="matrix(0.04938271604938272,0,0,0.04938271604938272,21.7283950617284,0)" xlink:href="#ah"/></g><g id="o"><use transform="matrix(0.04938271604938272,0,0,0.04938271604938272,0,0)" xlink:href="#ay"/><use transform="matrix(0.04938271604938272,0,0,0.04938271604938272,12.790123456790125,0)" xlink:href="#ad"/><use transform="matrix(0.04938271604938272,0,0,0.04938271604938272,22.66666666666667,0)" xlink:href="#R"/><use transform="matrix(0.04938271604938272,0,0,0.04938271604938272,27.604938271604947,0)" xlink:href="#ab"/><use transform="matrix(0.04938271604938272,0,0,0.04938271604938272,37.48148148148149,0)" xlink:href="#az"/><use transform="matrix(0.04938271604938272,0,0,0.04938271604938272,47.35802469135803,0)" xlink:href="#V"/><use transform="matrix(0.04938271604938272,0,0,0.04938271604938272,57.23456790123457,0)" xlink:href="#S"/><use transform="matrix(0.04938271604938272,0,0,0.04938271604938272,63.111111111111114,0)" xlink:href="#W"/><use transform="matrix(0.04938271604938272,0,0,0.04938271604938272,67.01234567901236,0)" xlink:href="#ab"/><use transform="matrix(0.04938271604938272,0,0,0.04938271604938272,76.8888888888889,0)" xlink:href="#ag"/></g><path fill="#171f29" d="M115-194c55 1 70 41 70 98S169 2 115 4C84 4 66-9 55-30l1 105H24l-1-265h31l2 30c10-21 28-34 59-34zm-8 174c40 0 45-34 45-75s-6-73-45-74c-42 0-51 32-51 76 0 43 10 73 51 73" id="aB"/><g id="p"><use transform="matrix(0.04938271604938272,0,0,0.04938271604938272,0,0)" xlink:href="#at"/><use transform="matrix(0.04938271604938272,0,0,0.04938271604938272,9.876543209876544,0)" xlink:href="#aB"/><use transform="matrix(0.04938271604938272,0,0,0.04938271604938272,19.75308641975309,0)" xlink:href="#aB"/><use transform="matrix(0.04938271604938272,0,0,0.04938271604938272,29.629629629629633,0)" xlink:href="#av"/><use transform="matrix(0.04938271604938272,0,0,0.04938271604938272,33.53086419753087,0)" xlink:href="#an"/><use transform="matrix(0.04938271604938272,0,0,0.04938271604938272,43.40740740740741,0)" xlink:href="#ao"/></g><path fill="#171f29" d="M117-194c89-4 53 116 60 194h-32v-121c0-31-8-49-39-48C34-167 62-67 57 0H25l-1-190h30c1 10-1 24 2 32 11-22 29-35 61-36" id="aC"/><g id="q"><use transform="matrix(0.04938271604938272,0,0,0.04938271604938272,0,0)" xlink:href="#au"/><use transform="matrix(0.04938271604938272,0,0,0.04938271604938272,9.876543209876544,0)" xlink:href="#at"/><use transform="matrix(0.04938271604938272,0,0,0.04938271604938272,19.75308641975309,0)" xlink:href="#aC"/><use transform="matrix(0.04938271604938272,0,0,0.04938271604938272,29.629629629629633,0)" xlink:href="#at"/><use transform="matrix(0.04938271604938272,0,0,0.04938271604938272,39.50617283950618,0)" xlink:href="#aC"/><use transform="matrix(0.04938271604938272,0,0,0.04938271604938272,49.38271604938272,0)" xlink:href="#at"/><use transform="matrix(0.04938271604938272,0,0,0.04938271604938272,59.25925925925927,0)" xlink:href="#ao"/></g><g id="r"><use transform="matrix(0.04938271604938272,0,0,0.04938271604938272,0,0)" xlink:href="#au"/><use transform="matrix(0.04938271604938272,0,0,0.04938271604938272,9.876543209876544,0)" xlink:href="#an"/><use transform="matrix(0.04938271604938272,0,0,0.04938271604938272,19.75308641975309,0)" xlink:href="#am"/><use transform="matrix(0.04938271604938272,0,0,0.04938271604938272,25.629629629629633,0)" xlink:href="#am"/><use transform="matrix(0.04938271604938272,0,0,0.04938271604938272,31.506172839506174,0)" xlink:href="#ax"/><use transform="matrix(0.04938271604938272,0,0,0.04938271604938272,35.40740740740741,0)" xlink:href="#an"/><use transform="matrix(0.04938271604938272,0,0,0.04938271604938272,45.283950617283956,0)" xlink:href="#ao"/></g><g id="s"><use transform="matrix(0.04938271604938272,0,0,0.04938271604938272,0,0)" xlink:href="#aB"/><use transform="matrix(0.04938271604938272,0,0,0.04938271604938272,9.876543209876544,0)" xlink:href="#at"/><use transform="matrix(0.04938271604938272,0,0,0.04938271604938272,19.75308641975309,0)" xlink:href="#ar"/><use transform="matrix(0.04938271604938272,0,0,0.04938271604938272,29.629629629629633,0)" xlink:href="#an"/></g><path fill="#171f29" d="M27 0v-27h64v-190l-56 39v-29l58-41h29v221h61V0H27" id="aD"/><use transform="matrix(0.04938271604938272,0,0,0.04938271604938272,0,0)" xlink:href="#aD" id="t"/><path fill="#171f29" d="M101-251c82-7 93 87 43 132L82-64C71-53 59-42 53-27h129V0H18c2-99 128-94 128-182 0-28-16-43-45-43s-46 15-49 41l-32-3c6-41 34-60 81-64" id="aE"/><use transform="matrix(0.04938271604938272,0,0,0.04938271604938272,0,0)" xlink:href="#aE" id="u"/><path fill="#171f29" d="M126-127c33 6 58 20 58 59 0 88-139 92-164 29-3-8-5-16-6-25l32-3c6 27 21 44 54 44 32 0 52-15 52-46 0-38-36-46-79-43v-28c39 1 72-4 72-42 0-27-17-43-46-43-28 0-47 15-49 41l-32-3c6-42 35-63 81-64 48-1 79 21 79 65 0 36-21 52-52 59" id="aF"/><use transform="matrix(0.04938271604938272,0,0,0.04938271604938272,0,0)" xlink:href="#aF" id="v"/><g id="w"><use transform="matrix(0.04938271604938272,0,0,0.04938271604938272,0,0)" xlink:href="#U"/><use transform="matrix(0.04938271604938272,0,0,0.04938271604938272,11.851851851851853,0)" xlink:href="#ad"/><use transform="matrix(0.04938271604938272,0,0,0.04938271604938272,21.7283950617284,0)" xlink:href="#az"/><use transform="matrix(0.04938271604938272,0,0,0.04938271604938272,31.60493827160494,0)" xlink:href="#ab"/><use transform="matrix(0.04938271604938272,0,0,0.04938271604938272,41.48148148148149,0)" xlink:href="#ag"/></g><g id="x"><use transform="matrix(0.04938271604938272,0,0,0.04938271604938272,0,0)" xlink:href="#V"/><use transform="matrix(0.04938271604938272,0,0,0.04938271604938272,9.876543209876544,0)" xlink:href="#aj"/></g><g id="y"><use transform="matrix(0.04938271604938272,0,0,0.04938271604938272,0,0)" xlink:href="#U"/><use transform="matrix(0.04938271604938272,0,0,0.04938271604938272,11.851851851851853,0)" xlink:href="#S"/><use transform="matrix(0.04938271604938272,0,0,0.04938271604938272,17.728395061728396,0)" xlink:href="#V"/><use transform="matrix(0.04938271604938272,0,0,0.04938271604938272,27.60493827160494,0)" xlink:href="#Y"/><use transform="matrix(0.04938271604938272,0,0,0.04938271604938272,37.48148148148148,0)" xlink:href="#Z"/><use transform="matrix(0.04938271604938272,0,0,0.04938271604938272,47.358024691358025,0)" xlink:href="#aa"/><use transform="matrix(0.04938271604938272,0,0,0.04938271604938272,56.246913580246904,0)" xlink:href="#R"/><use transform="matrix(0.04938271604938272,0,0,0.04938271604938272,61.185185185185176,0)" xlink:href="#ag"/></g><path d="M33 0v-248h34V0H33" id="aG"/><g id="z"><use transform="matrix(0.05,0,0,0.05,0,0)" xlink:href="#aG"/><use transform="matrix(0.05,0,0,0.05,5,0)" xlink:href="#ag"/></g><g id="A"><use transform="matrix(0.05,0,0,0.05,0,0)" xlink:href="#U"/><use transform="matrix(0.05,0,0,0.05,12,0)" xlink:href="#S"/><use transform="matrix(0.05,0,0,0.05,17.95,0)" xlink:href="#V"/><use transform="matrix(0.05,0,0,0.05,27.950000000000003,0)" xlink:href="#Y"/><use transform="matrix(0.05,0,0,0.05,37.95,0)" xlink:href="#Z"/><use transform="matrix(0.05,0,0,0.05,47.95,0)" xlink:href="#aa"/><use transform="matrix(0.05,0,0,0.05,56.95,0)" xlink:href="#R"/></g><path d="M206 0h-36l-40-164L89 0H53L-1-190h32L70-26l43-164h34l41 164 42-164h31" id="aH"/><path d="M103-251c84 0 111 97 45 133-19 10-37 24-39 52H78c0-63 77-55 77-114 0-30-21-42-52-43-32 0-53 17-56 46l-32-2c7-45 34-72 88-72zM77 0v-35h34V0H77" id="aI"/><g id="B"><use transform="matrix(0.05,0,0,0.05,0,0)" xlink:href="#ai"/><use transform="matrix(0.05,0,0,0.05,9,0)" xlink:href="#Q"/><use transform="matrix(0.05,0,0,0.05,19,0)" xlink:href="#V"/><use transform="matrix(0.05,0,0,0.05,29,0)" xlink:href="#aH"/><use transform="matrix(0.05,0,0,0.05,41.95,0)" xlink:href="#Q"/><use transform="matrix(0.05,0,0,0.05,51.95,0)" xlink:href="#aI"/></g><path d="M137-103V0h-34v-103L8-248h37l75 118 75-118h37" id="aJ"/><g id="C"><use transform="matrix(0.05,0,0,0.05,0,0)" xlink:href="#aJ"/><use transform="matrix(0.05,0,0,0.05,10.35,0)" xlink:href="#ab"/><use transform="matrix(0.05,0,0,0.05,20.35,0)" xlink:href="#ag"/></g><path d="M190 0L58-211 59 0H30v-248h39L202-35l-2-213h31V0h-41" id="aK"/><g id="D"><use transform="matrix(0.05,0,0,0.05,0,0)" xlink:href="#aK"/><use transform="matrix(0.05,0,0,0.05,12.950000000000001,0)" xlink:href="#V"/></g><g id="E"><use transform="matrix(0.05,0,0,0.05,0,0)" xlink:href="#aA"/><use transform="matrix(0.05,0,0,0.05,12,0)" xlink:href="#R"/><use transform="matrix(0.05,0,0,0.05,17,0)" xlink:href="#V"/><use transform="matrix(0.05,0,0,0.05,27,0)" xlink:href="#S"/><use transform="matrix(0.05,0,0,0.05,32.95,0)" xlink:href="#ab"/></g><g id="F"><use transform="matrix(0.05,0,0,0.05,0,0)" xlink:href="#U"/><use transform="matrix(0.05,0,0,0.05,12,0)" xlink:href="#S"/><use transform="matrix(0.05,0,0,0.05,17.95,0)" xlink:href="#W"/><use transform="matrix(0.05,0,0,0.05,21.9,0)" xlink:href="#aa"/><use transform="matrix(0.05,0,0,0.05,30.899999999999995,0)" xlink:href="#ab"/></g><g id="G"><use transform="matrix(0.05,0,0,0.05,0,0)" xlink:href="#R"/><use transform="matrix(0.05,0,0,0.05,5,0)" xlink:href="#V"/></g><g id="H"><use transform="matrix(0.05,0,0,0.05,0,0)" xlink:href="#ak"/><use transform="matrix(0.05,0,0,0.05,12.950000000000001,0)" xlink:href="#ad"/><use transform="matrix(0.05,0,0,0.05,22.950000000000003,0)" xlink:href="#R"/><use transform="matrix(0.05,0,0,0.05,27.950000000000003,0)" xlink:href="#ad"/><use transform="matrix(0.05,0,0,0.05,37.95,0)" xlink:href="#ah"/><use transform="matrix(0.05,0,0,0.05,47.95,0)" xlink:href="#ad"/><use transform="matrix(0.05,0,0,0.05,57.95,0)" xlink:href="#ag"/><use transform="matrix(0.05,0,0,0.05,66.95,0)" xlink:href="#ab"/></g><g id="I"><use transform="matrix(0.05,0,0,0.05,0,0)" xlink:href="#ay"/><use transform="matrix(0.05,0,0,0.05,12.950000000000001,0)" xlink:href="#S"/><use transform="matrix(0.05,0,0,0.05,18.900000000000002,0)" xlink:href="#ab"/><use transform="matrix(0.05,0,0,0.05,28.900000000000002,0)" xlink:href="#ad"/><use transform="matrix(0.05,0,0,0.05,38.900000000000006,0)" xlink:href="#R"/><use transform="matrix(0.05,0,0,0.05,43.900000000000006,0)" xlink:href="#ab"/></g><g id="J"><use transform="matrix(0.05,0,0,0.05,0,0)" xlink:href="#Q"/><use transform="matrix(0.05,0,0,0.05,10,0)" xlink:href="#ab"/><use transform="matrix(0.05,0,0,0.05,20,0)" xlink:href="#aH"/></g><g id="K"><use transform="matrix(0.05,0,0,0.05,0,0)" xlink:href="#U"/><use transform="matrix(0.05,0,0,0.05,12,0)" xlink:href="#S"/><use transform="matrix(0.05,0,0,0.05,17.95,0)" xlink:href="#V"/><use transform="matrix(0.05,0,0,0.05,27.950000000000003,0)" xlink:href="#Y"/><use transform="matrix(0.05,0,0,0.05,37.95,0)" xlink:href="#Z"/><use transform="matrix(0.05,0,0,0.05,47.95,0)" xlink:href="#aa"/><use transform="matrix(0.05,0,0,0.05,56.95,0)" xlink:href="#R"/></g><g id="L"><use transform="matrix(0.05,0,0,0.05,0,0)" xlink:href="#ab"/><use transform="matrix(0.05,0,0,0.05,10,0)" xlink:href="#Q"/><use transform="matrix(0.05,0,0,0.05,20,0)" xlink:href="#R"/><use transform="matrix(0.05,0,0,0.05,25,0)" xlink:href="#W"/><use transform="matrix(0.05,0,0,0.05,28.950000000000003,0)" xlink:href="#R"/><use transform="matrix(0.05,0,0,0.05,33.95,0)" xlink:href="#T"/></g><g id="M"><use transform="matrix(0.05,0,0,0.05,0,0)" xlink:href="#W"/><use transform="matrix(0.05,0,0,0.05,3.95,0)" xlink:href="#Q"/></g><g id="N"><use transform="matrix(0.05,0,0,0.05,0,0)" xlink:href="#U"/><use transform="matrix(0.05,0,0,0.05,12,0)" xlink:href="#S"/><use transform="matrix(0.05,0,0,0.05,17.95,0)" xlink:href="#V"/><use transform="matrix(0.05,0,0,0.05,27.950000000000003,0)" xlink:href="#Y"/><use transform="matrix(0.05,0,0,0.05,37.95,0)" xlink:href="#Z"/><use transform="matrix(0.05,0,0,0.05,47.95,0)" xlink:href="#aa"/><use transform="matrix(0.05,0,0,0.05,56.95,0)" xlink:href="#R"/></g><g id="O"><use transform="matrix(0.05,0,0,0.05,0,0)" xlink:href="#U"/><use transform="matrix(0.05,0,0,0.05,12,0)" xlink:href="#ad"/><use transform="matrix(0.05,0,0,0.05,22,0)" xlink:href="#az"/><use transform="matrix(0.05,0,0,0.05,32,0)" xlink:href="#ab"/></g></defs></g></svg>